<svg xmlns="http://www.w3.org/2000/svg" viewBox="0 0 640 420" role="img" aria-labelledby="title desc">
  <title id="title">Tool room and drill station</title>
  <desc id="desc">Illustration of a tool room bench with organized tools and drill support.</desc>
  <defs>
    <linearGradient id="bg" x1="0" y1="0" x2="1" y2="1">
      <stop offset="0%" stop-color="#111b29"/>
      <stop offset="100%" stop-color="#32445d"/>
    </linearGradient>
  </defs>
  <rect width="640" height="420" rx="36" fill="url(#bg)"/>
  <rect x="72" y="92" width="496" height="76" rx="22" fill="#e7edf3"/>
  <rect x="72" y="184" width="496" height="122" rx="22" fill="#f2a92c"/>
  <rect x="108" y="120" width="44" height="20" rx="8" fill="#1f2937"/>
  <rect x="172" y="120" width="44" height="20" rx="8" fill="#1f2937"/>
  <rect x="236" y="120" width="44" height="20" rx="8" fill="#1f2937"/>
  <rect x="300" y="120" width="44" height="20" rx="8" fill="#1f2937"/>
  <rect x="364" y="120" width="44" height="20" rx="8" fill="#1f2937"/>
  <rect x="428" y="120" width="44" height="20" rx="8" fill="#1f2937"/>
  <rect x="492" y="120" width="44" height="20" rx="8" fill="#1f2937"/>
  <rect x="126" y="212" width="84" height="68" rx="16" fill="#fff0d0"/>
  <rect x="278" y="212" width="84" height="68" rx="16" fill="#fff0d0"/>
  <rect x="430" y="212" width="84" height="68" rx="16" fill="#fff0d0"/>
  <path d="M168 206v-38M320 206v-46M472 206v-34" stroke="#11161f" stroke-width="12" stroke-linecap="round"/>
  <text x="72" y="60" fill="#ffffff" font-family="Segoe UI, Arial, sans-serif" font-size="30" font-weight="700">Tool Room &amp; Drill Support</text>
  <text x="72" y="388" fill="#d7e0eb" font-family="Segoe UI, Arial, sans-serif" font-size="22">Workshop readiness for setup, maintenance, and drilling work</text>
</svg>
