<svg xmlns="http://www.w3.org/2000/svg" viewBox="0 0 640 420" role="img" aria-labelledby="title desc">
  <title id="title">Powder coating facility</title>
  <desc id="desc">Illustration of a powder coating booth with hanging parts.</desc>
  <defs>
    <linearGradient id="bg" x1="0" y1="0" x2="1" y2="1">
      <stop offset="0%" stop-color="#152030"/>
      <stop offset="100%" stop-color="#2d4762"/>
    </linearGradient>
  </defs>
  <rect width="640" height="420" rx="36" fill="url(#bg)"/>
  <rect x="118" y="88" width="404" height="224" rx="28" fill="#ecf1f6"/>
  <rect x="148" y="118" width="344" height="164" rx="18" fill="#d6e0ea"/>
  <path d="M188 110v66M252 110v84M320 110v74M388 110v90M454 110v70" stroke="#11161f" stroke-width="8" stroke-linecap="round"/>
  <rect x="172" y="176" width="32" height="58" rx="8" fill="#f2a92c"/>
  <rect x="236" y="194" width="32" height="40" rx="8" fill="#1f2937"/>
  <rect x="304" y="182" width="32" height="52" rx="8" fill="#f2a92c"/>
  <rect x="372" y="190" width="32" height="44" rx="8" fill="#1f2937"/>
  <rect x="438" y="176" width="32" height="58" rx="8" fill="#f2a92c"/>
  <circle cx="200" cy="254" r="30" fill="#f6bd54" opacity=".22"/>
  <circle cx="320" cy="252" r="34" fill="#f6bd54" opacity=".22"/>
  <circle cx="450" cy="254" r="30" fill="#f6bd54" opacity=".22"/>
  <text x="72" y="60" fill="#ffffff" font-family="Segoe UI, Arial, sans-serif" font-size="30" font-weight="700">Powder Coating Facility</text>
  <text x="72" y="388" fill="#d7e0eb" font-family="Segoe UI, Arial, sans-serif" font-size="22">Protective finishing for fabricated and utility products</text>
</svg>
