<svg xmlns="http://www.w3.org/2000/svg" viewBox="0 0 640 420" role="img" aria-labelledby="title desc">
  <title id="title">CNC laser cutting machine</title>
  <desc id="desc">Illustration of a CNC laser cutting machine processing a steel sheet.</desc>
  <defs>
    <linearGradient id="bg" x1="0" y1="0" x2="1" y2="1">
      <stop offset="0%" stop-color="#131a25"/>
      <stop offset="100%" stop-color="#263a56"/>
    </linearGradient>
    <linearGradient id="beam" x1="0" y1="0" x2="0" y2="1">
      <stop offset="0%" stop-color="#fffbcc"/>
      <stop offset="100%" stop-color="#f2a92c"/>
    </linearGradient>
  </defs>
  <rect width="640" height="420" rx="36" fill="url(#bg)"/>
  <rect x="68" y="110" width="504" height="192" rx="28" fill="#d7dee7"/>
  <rect x="96" y="138" width="448" height="136" rx="18" fill="#2b3b50"/>
  <rect x="136" y="170" width="192" height="72" rx="12" fill="#b8c5d3"/>
  <rect x="362" y="150" width="118" height="112" rx="18" fill="#0f1724"/>
  <rect x="402" y="100" width="44" height="90" rx="16" fill="#f2a92c"/>
  <path d="M424 190v56" stroke="url(#beam)" stroke-width="10" stroke-linecap="round"/>
  <path d="M424 246l-26 26" stroke="#f2a92c" stroke-width="7" stroke-linecap="round"/>
  <g fill="#ffd166">
    <circle cx="390" cy="278" r="5"/>
    <circle cx="406" cy="268" r="4"/>
    <circle cx="418" cy="284" r="4"/>
    <circle cx="432" cy="270" r="3"/>
  </g>
  <rect x="96" y="302" width="448" height="20" rx="10" fill="#11161f"/>
  <text x="74" y="60" fill="#ffffff" font-family="Segoe UI, Arial, sans-serif" font-size="30" font-weight="700">CNC Laser Cutting</text>
  <text x="74" y="388" fill="#d7e0eb" font-family="Segoe UI, Arial, sans-serif" font-size="22">64-watt laser support for cutting up to 16 mm sheet</text>
</svg>
