<svg xmlns="http://www.w3.org/2000/svg" viewBox="0 0 640 420" role="img" aria-labelledby="title desc">
  <title id="title">Power press machine</title>
  <desc id="desc">Illustration of a heavy-duty power press in Bhumi Industries brand colors.</desc>
  <defs>
    <linearGradient id="bg" x1="0" y1="0" x2="1" y2="1">
      <stop offset="0%" stop-color="#152135"/>
      <stop offset="100%" stop-color="#293c56"/>
    </linearGradient>
    <linearGradient id="machine" x1="0" y1="0" x2="0" y2="1">
      <stop offset="0%" stop-color="#f3b03a"/>
      <stop offset="100%" stop-color="#d68b10"/>
    </linearGradient>
  </defs>
  <rect width="640" height="420" rx="36" fill="url(#bg)"/>
  <rect x="34" y="300" width="572" height="54" rx="18" fill="#0f1724"/>
  <rect x="88" y="92" width="220" height="178" rx="24" fill="url(#machine)"/>
  <rect x="330" y="70" width="114" height="220" rx="24" fill="#e39a20"/>
  <rect x="118" y="124" width="158" height="22" rx="8" fill="#fff2d5" opacity=".9"/>
  <rect x="138" y="154" width="118" height="64" rx="10" fill="#11161f" opacity=".8"/>
  <rect x="348" y="98" width="76" height="32" rx="10" fill="#fff2d5" opacity=".9"/>
  <rect x="298" y="208" width="86" height="24" rx="8" fill="#11161f"/>
  <rect x="238" y="222" width="196" height="18" rx="8" fill="#f5d08a"/>
  <rect x="248" y="238" width="176" height="18" rx="8" fill="#c4ccd7"/>
  <circle cx="126" cy="328" r="12" fill="#f2a92c"/>
  <circle cx="514" cy="328" r="12" fill="#f2a92c"/>
  <text x="78" y="56" fill="#ffffff" font-family="Segoe UI, Arial, sans-serif" font-size="30" font-weight="700">Power Press &amp; Forming</text>
  <text x="78" y="388" fill="#d7e0eb" font-family="Segoe UI, Arial, sans-serif" font-size="22">5 Ton to 100 Ton press capacity support</text>
</svg>
